<svg id="Responsive_Web_Design._UX_UI_Design." data-name="Responsive Web Design. UX / UI Design." xmlns="http://www.w3.org/2000/svg" viewBox="0 0 1200 1200"><defs><style>.cls-1{font-size:210px;fill:#fff;font-family:SpoqaHanSansNeo-Bold, Spoqa Han Sans Neo;font-weight:700;}</style></defs><text id="Responsive_Web_Design._UX_UI_Design.-2" data-name="Responsive Web Design. UX / UI Design." class="cls-1" transform="matrix(-0.16, 0.99, -0.99, -0.16, 1027.25, 767.12)">r</text><text class="cls-1" transform="matrix(-0.64, 0.77, -0.77, -0.64, 1031.52, 865.56)">e</text><text class="cls-1" transform="translate(947.77 962.22) rotate(144.74)">s</text><text class="cls-1" transform="translate(858.91 1026.65) rotate(160.22)">p</text><text class="cls-1" transform="matrix(-1, 0.05, -0.05, -1, 726.78, 1073.1)">o</text><text class="cls-1" transform="translate(590.58 1079.48) rotate(-165.93)">n</text><text class="cls-1" transform="translate(455.61 1042.76) rotate(-150.47)">s</text><text class="cls-1" transform="translate(359.9 985.15) rotate(-139.6)">i</text><text class="cls-1" transform="matrix(-0.61, -0.79, 0.79, -0.61, 308.2, 944.46)">v</text><text class="cls-1" transform="translate(231.56 843.99) rotate(-111.94)">e</text><text class="cls-1" transform="translate(187.35 722.36) rotate(-100.55)"> </text><text class="cls-1" transform="matrix(0.07, -1, 1, 0.07, 169.73, 670.03)">w</text><text class="cls-1" transform="matrix(0.4, -0.92, 0.92, 0.4, 188.66, 486.65)">e</text><text class="cls-1" transform="matrix(0.64, -0.77, 0.77, 0.64, 238.97, 369.86)">b</text><text class="cls-1" transform="matrix(0.79, -0.62, 0.62, 0.79, 333.9, 264.01)"> </text><text class="cls-1" transform="matrix(0.9, -0.44, 0.44, 0.9, 375.1, 226.79)">d</text><text class="cls-1" transform="translate(502 167.22) rotate(-9.43)">e</text><text class="cls-1" transform="translate(628.44 148.14) rotate(5.16)">s</text><text class="cls-1" transform="matrix(0.96, 0.28, -0.28, 0.96, 739.35, 161.11)">i</text><text class="cls-1" transform="translate(803.08 176.66) rotate(28.44)">g</text><text class="cls-1" transform="translate(918.25 233.39) rotate(51.27)">n</text></svg>